<?xml version="1.0" standalone="no"?>
<!DOCTYPE svg PUBLIC "-//W3C//DTD SVG 20010904//EN"
 "http://www.w3.org/TR/2001/REC-SVG-20010904/DTD/svg10.dtd">
<svg version="1.0" xmlns="http://www.w3.org/2000/svg"
 width="70.000000pt" height="70.000000pt" viewBox="0 0 70.000000 70.000000"
 preserveAspectRatio="xMidYMid meet">
<metadata>
Created by potrace 1.11, written by Peter Selinger 2001-2013
</metadata>
<g transform="translate(0.000000,70.000000) scale(0.100000,-0.100000)"
fill="#000000" stroke="none">
<path d="M534 662 c-18 -20 -34 -39 -34 -42 0 -3 -16 -5 -35 -5 -19 1 -35 -2
-35 -7 0 -4 -5 -8 -11 -8 -5 0 -8 4 -5 9 10 15 -65 5 -76 -10 -8 -12 -9 -11
-5 2 4 13 -5 15 -61 14 -74 -1 -95 2 -86 16 3 5 1 9 -4 9 -5 0 -15 11 -22 25
-14 27 -50 34 -50 11 0 -26 12 -46 24 -39 6 4 -2 -10 -17 -30 -15 -20 -25 -37
-22 -37 3 0 0 -6 -7 -14 -7 -8 -17 -11 -22 -8 -5 3 -6 -3 -3 -12 5 -11 -1 -32
-14 -52 -12 -20 -16 -34 -9 -34 6 0 9 -4 5 -9 -3 -6 1 -16 8 -23 8 -7 12 -21
9 -32 -4 -14 -2 -17 9 -11 12 8 12 6 0 -8 -10 -13 -11 -17 -1 -17 7 0 3 -9
-10 -20 -13 -11 -19 -20 -14 -20 5 0 2 -5 -6 -10 -10 -6 -11 -10 -2 -10 6 0
12 -9 12 -20 0 -11 3 -20 8 -20 4 0 7 -20 7 -44 0 -24 -4 -42 -8 -39 -5 3 -7
-8 -5 -23 3 -29 56 -94 77 -94 6 0 11 -4 11 -8 0 -4 9 -8 20 -9 11 -1 18 2 15
8 -4 5 5 5 20 -1 17 -6 33 -7 44 -1 9 5 22 6 28 3 7 -4 29 -6 50 -5 21 2 64 3
96 3 39 1 55 5 51 12 -5 7 -2 8 7 3 23 -15 69 -12 80 4 9 14 10 14 5 -1 -9
-29 55 -10 86 26 25 27 41 95 21 83 -15 -9 -14 74 1 94 14 20 11 63 -4 54 -4
-2 -5 7 -2 22 3 16 1 24 -5 20 -10 -6 -7 33 5 63 10 26 10 55 0 68 -6 6 -7 12
-2 12 5 0 2 5 -6 10 -13 8 -13 10 -1 10 11 0 9 4 -5 15 -14 11 -15 14 -4 15
13 0 13 2 0 9 -8 6 -18 7 -24 4 -5 -3 -6 -1 -2 5 3 6 0 14 -7 19 -8 4 -20 19
-27 32 -6 13 -8 21 -3 18 4 -3 14 1 21 9 12 13 8 18 -12 15 -5 -1 -4 4 3 12 9
12 8 16 -4 21 -11 4 -28 -7 -51 -32z"/>
</g>
</svg>
