<?xml version="1.0" encoding="utf-8"?>
<!-- Generator: Adobe Illustrator 18.1.1, SVG Export Plug-In . SVG Version: 6.00 Build 0)  -->
<svg version="1.1" id="Capa_1" xmlns="http://www.w3.org/2000/svg" xmlns:xlink="http://www.w3.org/1999/xlink" x="0px" y="0px"
	 viewBox="276 -135.1 950.4 950.4" style="enable-background:new 276 -135.1 950.4 950.4;" xml:space="preserve">
<path d="M751.2-134.6c-262.2,0-474.7,212.5-474.7,474.7s212.5,474.7,474.7,474.7s474.7-212.5,474.7-474.7S1013.4-134.6,751.2-134.6z
	 M894.2,144.7c0,5.3-4.3,9.5-9.5,9.5h-56c-19.7,0-29.6,9.4-29.6,27.9v61.4h85.6c2.7,0,5.3,1.2,7.1,3.2c1.8,2,2.7,4.7,2.4,7.4
	l-11.3,98c-0.6,4.8-4.6,8.4-9.5,8.4h-74.3v265c0,5.3-4.3,9.5-9.5,9.5H679.9c-5.3,0-9.5-4.3-9.5-9.5V359.3h-64.7
	c-5.3,0-9.5-4.3-9.5-9.5v-96.8c0-5.3,4.3-9.5,9.5-9.5h67.9v-71.8c-1.4-7.8-7-52.7,33.7-90.1c36.8-33.8,83.3-36.4,96.7-36.4
	c1.8,0,3,0,3.5,0.1h77.2c5.3,0,9.5,4.3,9.5,9.5V144.7z"/>
</svg>
