<?xml version="1.0" encoding="utf-8"?>
<!-- Generator: Adobe Illustrator 18.1.1, SVG Export Plug-In . SVG Version: 6.00 Build 0)  -->
<svg version="1.1" id="Capa_1" xmlns="http://www.w3.org/2000/svg" xmlns:xlink="http://www.w3.org/1999/xlink" x="0px" y="0px"
	 viewBox="276 -135.1 950.4 950.4" style="enable-background:new 276 -135.1 950.4 950.4;" xml:space="preserve">
<path d="M819.3,324.1l-100.7-52.3c-4.8-2.5-10.6-2.3-15.2,0.5c-4.6,2.8-7.4,7.8-7.4,13.2v104.9c0,5.4,2.8,10.4,7.5,13.2
	c2.5,1.5,5.2,2.2,8,2.2c2.5,0,4.9-0.6,7.2-1.8l100.7-52.6c5.1-2.7,8.3-8,8.3-13.7C827.7,332.1,824.5,326.8,819.3,324.1z"/>
<path d="M751.2-134.6c-262.2,0-474.7,212.5-474.7,474.7s212.5,474.7,474.7,474.7s474.7-212.5,474.7-474.7S1013.4-134.6,751.2-134.6z
	 M991.2,381.6c0,52.7-8.3,83.1-27.8,101.8c-19,18.2-48.3,25.6-101.3,25.6H640.3c-109.1,0-129.1-42.9-129.1-127.4v-83.1
	c0-43.6,0-75.1,16.8-96.5c17.3-21.9,49.8-30.9,112.3-30.9h221.8c61.1,0,93.1,8.4,110.4,29c17.4,20.7,18.7,52.4,18.7,98.4V381.6z"/>
</svg>
