<?xml version="1.0" standalone="no"?>
<!DOCTYPE svg PUBLIC "-//W3C//DTD SVG 20010904//EN"
 "http://www.w3.org/TR/2001/REC-SVG-20010904/DTD/svg10.dtd">
<svg version="1.0" xmlns="http://www.w3.org/2000/svg"
 width="280.000000pt" height="280.000000pt" viewBox="0 0 280.000000 280.000000"
 preserveAspectRatio="xMidYMid meet">
<metadata>
Created by potrace 1.11, written by Peter Selinger 2001-2013
</metadata>
<g transform="translate(0.000000,280.000000) scale(0.100000,-0.100000)"
fill="#000000" stroke="none">
<path d="M0 1400 l0 -1400 1400 0 1400 0 0 1400 0 1400 -1400 0 -1400 0 0
-1400z m1388 1109 c313 -34 542 -126 715 -288 90 -85 141 -156 198 -274 124
-259 143 -685 45 -975 -127 -371 -415 -597 -866 -677 -201 -35 -644 -29 -895
13 l-100 17 -3 1071 -2 1071 67 11 c228 37 645 53 841 31z"/>
<path d="M1013 2093 l-33 -4 0 -693 0 -694 23 -6 c41 -11 241 -6 338 9 235 35
389 141 478 328 66 139 88 286 71 468 -34 360 -210 546 -555 588 -86 10 -253
12 -322 4z"/>
</g>
</svg>
