<?xml version="1.0" encoding="utf-8"?>
<!-- Generator: Adobe Illustrator 18.1.1, SVG Export Plug-In . SVG Version: 6.00 Build 0)  -->
<svg version="1.1" id="Capa_1" xmlns="http://www.w3.org/2000/svg" xmlns:xlink="http://www.w3.org/1999/xlink" x="0px" y="0px"
	 viewBox="276 -135.1 950.4 950.4" style="enable-background:new 276 -135.1 950.4 950.4;" xml:space="preserve">
<style type="text/css">
	.st0{stroke:#000000;stroke-width:10;stroke-miterlimit:10;}
</style>
<path d="M751.2-134.6c-262.2,0-474.7,212.5-474.7,474.7s212.5,474.7,474.7,474.7s474.7-212.5,474.7-474.7S1013.4-134.6,751.2-134.6z
	 M986.2,445.4c0,71.5-58.2,129.7-129.7,129.7H645.9c-71.5,0-129.7-58.2-129.7-129.7V234.8c0-71.5,58.2-129.7,129.7-129.7h210.6
	c71.5,0,129.7,58.2,129.7,129.7V445.4z"/>
<path class="st0" d="M751.2,219c-66.8,0-121.1,54.3-121.1,121.1c0,66.8,54.3,121.1,121.1,121.1c66.8,0,121.1-54.3,121.1-121.1
	C872.3,273.3,818,219,751.2,219z M751.2,419.5c-43.8,0-79.4-35.6-79.4-79.4c0-43.8,35.6-79.4,79.4-79.4c43.8,0,79.4,35.6,79.4,79.4
	C830.6,383.9,795,419.5,751.2,419.5z"/>
<path class="st0" d="M899,192.6c5.7,5.7,9,13.6,9,21.6c0,8-3.3,15.9-9,21.6c-5.7,5.7-13.6,8.9-21.6,8.9c-8,0-15.9-3.3-21.6-8.9
	c-5.7-5.7-9-13.6-9-21.6c0-8.1,3.3-16,9-21.6c5.7-5.7,13.6-8.9,21.6-8.9C885.5,183.6,893.4,186.9,899,192.6z"/>
</svg>
