<?xml version="1.0" encoding="utf-8"?>
<!-- Generator: Adobe Illustrator 18.1.1, SVG Export Plug-In . SVG Version: 6.00 Build 0)  -->
<svg version="1.1" id="Capa_1" xmlns="http://www.w3.org/2000/svg" xmlns:xlink="http://www.w3.org/1999/xlink" x="0px" y="0px"
	 viewBox="276 -135.1 950.4 950.4" style="enable-background:new 276 -135.1 950.4 950.4;" xml:space="preserve">
<path d="M856.8,361.3L695.6,522.6c-5.7,5.7-13.3,8.7-21,8.7c-7.6,0-15.2-2.9-21-8.7c-11.6-11.6-11.6-30.5,0-42.1L764.4,370H329.6
	h-23.9c-16.3,0-29.7-13.4-29.7-29.7v0c0-16.3,13.4-29.7,29.7-29.7h23.9H764L653.5,200.1c-11.6-11.6-11.6-30.5,0-42.1
	c11.6-11.6,30.5-11.6,42.1,0l161.2,161.2C868.5,330.8,868.5,349.7,856.8,361.3z M1226.4,94.4v491.3c0,98.2-79.7,178-177.9,178h-85.4
	h-27.4H665.5c-98,0-177.9-79.8-177.9-178V486c0-16.5,13.2-29.8,29.6-29.8c16.5,0,29.8,13.3,29.8,29.8v99.8
	c0,65.5,53.2,118.6,118.5,118.6h270.3h27.4h85.4c65.3,0,118.5-53.3,118.5-118.6V94.4c0-65.5-53.2-118.6-118.5-118.6h-85.4h-27.4
	H665.5C600.2-24.2,547,29.1,547,94.4v101c0,16.3-13.3,29.6-29.8,29.6c-16.3,0-29.6-13.2-29.6-29.6v-101c0-98.2,79.7-178,177.9-178
	h270.3h27.4h85.4C1146.6-83.6,1226.4-3.8,1226.4,94.4z"/>
</svg>
