<?xml version="1.0" encoding="utf-8"?>
<!-- Generator: Adobe Illustrator 18.1.1, SVG Export Plug-In . SVG Version: 6.00 Build 0)  -->
<svg version="1.1" id="Capa_1" xmlns="http://www.w3.org/2000/svg" xmlns:xlink="http://www.w3.org/1999/xlink" x="0px" y="0px"
	 viewBox="276 -135.1 950.4 950.4" style="enable-background:new 276 -135.1 950.4 950.4;" xml:space="preserve">
<path d="M938.9,424.6c-5-5.4-12.9-11.4-22.7-11.4c-7.9,0-16,4-23.4,11.4L845,472.5c-2.2,2.2-8.8,8.7-19.1,8.7c-4.1,0-8.2-1-12.4-3.2
	c-0.5-0.3-0.9-0.5-1.4-0.8c-4.2-2.7-9-5.1-14.1-7.7c-5.5-2.8-11.4-5.6-16.9-9.2c-44.5-28.3-85-65-123.4-112.4
	c-21.4-26.9-35.1-49.4-44.9-73.1c-0.1-0.4-0.3-0.6-0.4-1c-2.6-7.7-4.2-17.8,6.4-28.4l0.6-0.6c12.3-10.9,23.4-22.3,35.3-34.3
	c4-4,7.9-8.1,11.9-12c7.9-7.9,12-16,12-23.9c0-7.9-4.1-16-12-23.9l-38.2-38.2c-4.5-4.6-9-9.1-13.3-13.6
	c-8.7-8.8-16.8-17.2-25.3-25.1c-7.3-7.4-15.2-11.1-23-11.1c-7.9,0-16.1,3.7-23.6,10.9l-47.6,47.6c-12.3,12.3-18.8,26.5-20.4,43.5
	c-2,25.7,2.9,54,16.1,89.2c21.3,57.4,53.4,110.9,101.1,168.3c58,69.4,127.9,124.1,207.5,162.6c29.3,14,68.4,30.3,110.4,33
	c2.2,0.1,4.5,0.3,6.7,0.3c22.7,0,40.2-7.4,54.9-23.3c8.5-10.1,17.8-19.1,26.8-27.8c6-5.8,11.7-11.3,17-17
	c15.6-16.3,15.7-32.9,0.4-48.3L938.9,424.6z"/>
<path d="M1154.8-103.5H347.7c-22,0-40,18-40,40v807.1c0,22,18,40,40,40h807.1c22,0,40-18,40-40V-63.5
	C1194.8-85.5,1176.8-103.5,1154.8-103.5z M1038.5,571.2c-5.9,6.1-12,12.2-18.1,17.9c-8.8,8.6-17.3,16.6-24.7,25.6
	c-0.1,0.3-0.4,0.5-0.5,0.6C974.4,638,948.8,649,916.9,649c-2.9,0-5.8-0.1-8.7-0.2c-47.5-3.1-90.1-21-122-36.1
	c-83.7-40.6-157.1-97.9-218-170.8c-50.2-60.3-84-116.8-106.4-177.6c-14.6-39.3-20.2-71.8-17.8-102.4c2-24.5,11.9-45.6,29.3-63
	L521.2,51c13.7-13.1,29.3-19.8,45.6-19.8c16.4,0,31.9,6.8,45.1,19.7c8.7,8.1,17.5,17,26,25.7c4.4,4.5,8.6,8.8,13.1,13.3l38.2,38.2
	c14,13.8,21.3,29.8,21.3,46.1c0,16.3-7.4,32.3-21.3,46.1c-4,4-7.9,7.9-11.8,11.9c-10.9,11.1-22.1,22.5-34.2,33.4
	c8.6,19.8,20.9,39.3,39.2,62.5c36.2,44.4,74.1,79,115.9,105.5c4.2,2.7,9,5.1,14.1,7.7c4.1,2.1,8.5,4.2,12.7,6.7l45.8-45.8
	c13.4-13.4,29.2-20.6,45.6-20.6c16.4,0,32,7.2,45.1,20.7l76.9,76.9C1065.8,506.7,1065.8,542.8,1038.5,571.2z"/>
</svg>
