<?xml version="1.0" encoding="utf-8"?>
<!-- Generator: Adobe Illustrator 18.1.1, SVG Export Plug-In . SVG Version: 6.00 Build 0)  -->
<svg version="1.1" id="Capa_1" xmlns="http://www.w3.org/2000/svg" xmlns:xlink="http://www.w3.org/1999/xlink" x="0px" y="0px"
	 viewBox="276 -135.1 950.4 950.4" style="enable-background:new 276 -135.1 950.4 950.4;" xml:space="preserve">
<path d="M744.9-135.2c-262.5,3.5-472.4,219.2-469,481.7c3.5,262.4,219.1,472.4,481.7,468.9c262.4-3.5,472.4-219.2,469-481.7
	C1223,71.3,1007.3-138.8,744.9-135.2L744.9-135.2z M743.4,629.4l-2.6-0.1c-40.4-1.2-68.9-31-67.8-70.8c1.1-39.2,30.3-67.6,69.4-67.6
	l2.4,0.1c41.5,1.2,69.7,30.7,68.6,71.7C812.2,602,783.5,629.4,743.4,629.4L743.4,629.4z M913.5,292c-9.5,13.5-30.4,30.3-56.8,50.8
	l-29,20c-15.9,12.4-25.5,24.1-29.1,35.5c-2.8,9-4.2,11.4-4.5,29.7l-0.1,4.7H683.3l0.3-9.4c1.4-38.5,2.3-61.2,18.3-79.9
	c25-29.4,80.3-65,82.7-66.5c7.9-6,14.6-12.7,19.5-20c11.7-16,16.8-28.7,16.8-41c0-17.2-5.1-33.1-15.2-47.3
	c-9.7-13.7-28.1-20.6-54.8-20.6c-26.4,0-44.6,8.4-55.4,25.6c-11.1,17.7-16.8,36.3-16.8,55.2v4.7H564.5l0.2-4.9
	c3-69.9,27.9-120.3,74.2-149.7c29.1-18.7,65.2-28.2,107.5-28.2c55.2,0,101.9,13.4,138.6,39.9c37.2,26.8,56.1,67,56.1,119.4
	C941,239.4,931.7,266.9,913.5,292L913.5,292z M913.5,292"/>
</svg>
