<?xml version="1.0" encoding="iso-8859-1"?>
<!-- Generator: Adobe Illustrator 16.0.0, SVG Export Plug-In . SVG Version: 6.00 Build 0)  -->
<!DOCTYPE svg PUBLIC "-//W3C//DTD SVG 1.1//EN" "http://www.w3.org/Graphics/SVG/1.1/DTD/svg11.dtd">
<svg version="1.1" id="Capa_1" xmlns="http://www.w3.org/2000/svg" xmlns:xlink="http://www.w3.org/1999/xlink" x="0px" y="0px"
	 width="950.428px" height="950.428px" viewBox="0 0 950.428 950.428" style="enable-background:new 0 0 950.428 950.428;"
	 xml:space="preserve">
<g>
	<path d="M723.861,597.449V337.197c0-52.352,42.59-94.943,94.943-94.943V119.571c0-11.046-8.955-20-20-20H292.239V42.783
		c0-11.046-8.954-20-20-20H110.104c-11.046,0-20,8.954-20,20v56.788H20c-11.046,0-20,8.954-20,20v457.878c0,11.047,8.954,20,20,20
		H723.861z M408.229,187.681c89.488,0,162.031,72.544,162.031,162.031s-72.543,162.032-162.031,162.032
		c-89.487,0-162.031-72.544-162.031-162.031C246.198,260.226,318.742,187.681,408.229,187.681z"/>
	<path d="M888.746,684.508v-178.83H843.42c-13.809,0-25-11.191-25-24.998c0-13.807,11.191-25,25-25h45.326v-36.363H843.42
		c-13.809,0-25-11.192-25-25c0-13.807,11.191-25,25-25h45.326v-32.119c0-38.628-31.314-69.943-69.943-69.943
		c-38.627,0-69.943,31.314-69.943,69.943v347.311c-37.049,23.289-61.68,64.521-61.68,111.514
		c0,72.693,58.93,131.623,131.623,131.623s131.625-58.93,131.625-131.623C950.428,749.029,925.797,707.797,888.746,684.508z
		 M818.803,876.566c-43.75,0-79.219-35.467-79.219-79.219c0-33.635,20.967-62.371,50.539-73.861v-111
		c0-15.84,12.84-28.68,28.68-28.68c15.838,0,28.68,12.84,28.68,28.68v111c29.574,11.49,50.537,40.227,50.537,73.861
		C898.021,841.1,862.555,876.566,818.803,876.566z"/>
</g>
<g>
</g>
<g>
</g>
<g>
</g>
<g>
</g>
<g>
</g>
<g>
</g>
<g>
</g>
<g>
</g>
<g>
</g>
<g>
</g>
<g>
</g>
<g>
</g>
<g>
</g>
<g>
</g>
<g>
</g>
</svg>
